#N canvas 26 627 600 400 10;
#X obj 50 82 oscparse;
#X obj 50 54 netreceive -u -b;
#X msg 50 25 listen 9000, f 13;
#X obj 50 110 list trim;
#X obj 50 139 route X;
#X obj 107 138 route Y;
#X obj 163 138 route R;
#X obj 215 138 route G;
#X obj 269 138 route B;
#X obj 48 265 dac~ 1;
#X obj 106 265 dac~ 2;
#X obj 163 265 dac~ 3;
#X obj 233 269 dac~ 4;
#X obj 166 230 sig~, f 5;
#X obj 109 234 sig~;
#X obj 48 231 sig~;
#X obj 231 231 sig~;
#X obj 163 190 expr 1-$f1;
#X obj 237 189 expr 1-$f1;
#X obj 182 79 print;
#X connect 0 0 3 0;
#X connect 1 0 0 0;
#X connect 2 0 1 0;
#X connect 3 0 4 0;
#X connect 4 0 15 0;
#X connect 4 1 5 0;
#X connect 5 0 14 0;
#X connect 5 1 6 0;
#X connect 6 0 17 0;
#X connect 6 1 7 0;
#X connect 7 0 18 0;
#X connect 7 1 8 0;
#X connect 13 0 11 0;
#X connect 14 0 10 0;
#X connect 15 0 9 0;
#X connect 16 0 12 0;
#X connect 17 0 13 0;
#X connect 18 0 16 0;
