#N canvas 14 594 1047 868 12;
#X obj 199 108 oscparse;
#X obj 199 80 netreceive -u -b;
#X msg 199 52 listen 9000, f 13;
#X obj 199 136 list trim;
#X obj 199 194 route X;
#X obj 201 255 route Y;
#X obj 202 318 route R;
#X obj 204 378 route G;
#X obj 205 440 route B;
#X obj 263 344 expr 1-$f1;
#X obj 264 406 expr 1-$f1;
#X obj 91 694 *~ 512;
#X obj 44 789 dac~ 1;
#X obj 196 792 dac~ 2;
#N canvas 0 50 450 250 (subpatch) 0;
#X array x_buffer 280 float 0;
#X coords 0 1 279 -1 200 140 1;
#X restore 590 35 graph;
#X obj 45 747 tabread4~ x_buffer;
#X obj 195 747 tabread4~ y_buffer;
#X obj 283 223 tabwrite x_buffer;
#X obj 309 118 bng 19 250 50 0 empty empty empty 0 -10 0 12 -262144
-1 -1;
#X obj 334 175 f;
#X obj 355 142 + 1;
#X floatatom 489 199 5 0 0 0 - - -;
#X obj 374 175 mod, f 4;
#N canvas 0 50 450 250 (subpatch) 0;
#X array y_buffer 280 float 0;
#X coords 0 1 279 -1 200 140 1;
#X restore 591 202 graph;
#N canvas 0 50 450 250 (subpatch) 0;
#X array r_buffer 280 float 1;
#A 0 1 1 1 1 1 1 1 1 1 1 1 1 1 1 1 1 1 1 1 1 1 1 1 1 1 1 1 1 1 1 1
1 1 1 1 1 1 1 1 1 1 1 1 1 1 1 1 1 1 1 1 1 1 1 1 1 1 1 1 1 1 1 1 1 1
1 1 1 1 1 1 1 1 1 1 1 1 1 1 1 1 1 1 1 1 1 1 1 1 1 1 1 1 1 1 1 1 1 1
1 1 1 1 1 1 1 1 1 1 1 1 1 1 1 1 1 1 1 1 1 1 1 1 1 1 1 1 1 1 1 1 1 1
1 1 1 1 1 1 1 1 1 1 1 1 1 1 1 1 1 1 1 1 1 1 1 1 1 1 1 1 1 1 1 1 1 1
1 1 1 1 1 1 1 1 1 1 1 1 1 1 1 1 1 1 1 1 1 1 1 1 1 1 1 1 1 1 1 1 1 1
1 1 1 1 1 1 1 1 1 1 1 1 1 1 1 1 1 1 1 1 1 1 1 1 1 1 1 1 1 1 1 1 1 1
1 1 1 1 1 1 1 1 1 1 1 1 1 1 1 1 1 1 1 1 1 1 1 1 1 1 1 1 1 1 1 1 1 1
1 1 1 1 1 1 1 1 1 1 1;
#X coords 0 1 279 -1 200 140 1;
#X restore 818 37 graph;
#X obj 394 107 r buffer_size;
#X floatatom 396 141 5 0 0 0 - - -;
#X obj 48 131 s buffer_size;
#X obj 30 46 hsl 128 20 24 4096 0 0 empty empty Buffer_Size -2 -10
0 12 -262144 -1 -1 800 1;
#X floatatom 68 82 5 0 0 0 - - -;
#X obj 28 82 int;
#X obj 850 594 array size x_buffer;
#X obj 283 286 tabwrite y_buffer;
#X obj 286 374 tabwrite r_buffer;
#X obj 285 437 tabwrite g_buffer;
#X obj 287 508 tabwrite b_buffer;
#X obj 268 475 expr 1-$f1;
#N canvas 0 50 450 250 (subpatch) 0;
#X array g_buffer 280 float 0;
#X coords 0 1 279 -1 200 140 1;
#X restore 818 203 graph;
#N canvas 0 50 450 250 (subpatch) 0;
#X array b_buffer 280 float 0;
#X coords 0 1 279 -1 200 140 1;
#X restore 819 371 graph;
#X obj 811 563 r buffer_size;
#X obj 851 626 array size y_buffer;
#X obj 852 658 array size r_buffer;
#X obj 852 689 array size g_buffer;
#X obj 852 720 array size b_buffer;
#X obj 353 788 dac~ 3;
#X obj 512 788 dac~ 4;
#X obj 43 562 hsl 128 20 1 50 0 0 empty empty Frequency -2 -8 0 12
-262144 -1 -1 8600 1;
#X obj 38 662 phasor~ 2;
#X obj 40 631 int;
#X msg 654 415 \; x_buffer const 0;
#X msg 654 459 \; y_buffer const 0;
#X obj 133 663 r buffer_size;
#X msg 490 173 0;
#X msg 653 501 \; r_buffer const 1;
#X msg 654 543 \; g_buffer const 1;
#X msg 655 588 \; b_buffer const 1;
#X obj 351 745 tabread4~ r_buffer;
#X obj 512 742 tabread4~ g_buffer;
#X obj 456 141 r clear_buffers;
#X obj 39 334 s clear_buffers;
#X obj 26 134 bng 15 250 50 0 empty empty empty 17 7 0 10 -262144 -1
-1;
#X obj 28 165 s clear_buffers;
#X obj 56 301 bng 19 250 50 0 empty empty Clear\\\ Buffers 0 -10 0
12 -262144 -1 -1;
#X obj 591 385 r clear_buffers;
#X obj 41 250 route clear;
#X obj 360 695 *~ 512;
#X obj 307 663 phasor~ 2;
#X obj 402 664 r buffer_size;
#X msg 99 626 0, f 2;
#X obj 362 575 hsl 128 20 0.9 1 0 0 empty empty Laser_Sync -2 -8 0
12 -262144 -1 -1 11000 1;
#X obj 99 604 bng 15 250 50 0 empty empty empty 17 7 0 10 -262144 -1
-1;
#X floatatom 364 624 5 0 0 0 - - -;
#X connect 0 0 3 0;
#X connect 1 0 0 0;
#X connect 1 0 18 0;
#X connect 2 0 1 0;
#X connect 3 0 4 0;
#X connect 3 0 64 0;
#X connect 4 0 17 0;
#X connect 4 1 5 0;
#X connect 5 0 32 0;
#X connect 5 1 6 0;
#X connect 6 0 9 0;
#X connect 6 1 7 0;
#X connect 7 0 10 0;
#X connect 7 1 8 0;
#X connect 8 0 36 0;
#X connect 9 0 33 0;
#X connect 10 0 34 0;
#X connect 11 0 15 0;
#X connect 11 0 16 0;
#X connect 15 0 12 0;
#X connect 16 0 13 0;
#X connect 18 0 19 0;
#X connect 18 0 26 0;
#X connect 19 0 20 0;
#X connect 19 0 21 0;
#X connect 20 0 22 0;
#X connect 21 0 17 1;
#X connect 21 0 32 1;
#X connect 21 0 33 1;
#X connect 21 0 34 1;
#X connect 21 0 35 1;
#X connect 22 0 19 1;
#X connect 25 0 26 0;
#X connect 26 0 22 1;
#X connect 28 0 30 0;
#X connect 29 0 27 0;
#X connect 29 0 60 0;
#X connect 30 0 29 0;
#X connect 36 0 35 0;
#X connect 39 0 31 0;
#X connect 39 0 40 0;
#X connect 39 0 41 0;
#X connect 39 0 42 0;
#X connect 39 0 43 0;
#X connect 46 0 48 0;
#X connect 47 0 11 0;
#X connect 48 0 47 0;
#X connect 48 0 66 0;
#X connect 51 0 11 1;
#X connect 52 0 21 0;
#X connect 56 0 44 0;
#X connect 57 0 45 0;
#X connect 58 0 52 0;
#X connect 60 0 61 0;
#X connect 62 0 59 0;
#X connect 63 0 49 0;
#X connect 63 0 50 0;
#X connect 63 0 53 0;
#X connect 63 0 54 0;
#X connect 63 0 55 0;
#X connect 64 0 62 0;
#X connect 65 0 56 0;
#X connect 65 0 57 0;
#X connect 66 0 65 0;
#X connect 67 0 65 1;
#X connect 68 0 47 1;
#X connect 69 0 70 0;
#X connect 69 0 71 0;
#X connect 70 0 68 0;
#X connect 71 0 66 1;
